<svg width="87" height="60" viewBox="0 0 87 60" fill="none" xmlns="http://www.w3.org/2000/svg">
<rect width="87" height="60" rx="30" fill="white"/>
<g clip-path="url(#clip0_89_151)">
<rect x="30.5" y="13.5" width="24.5" height="25" stroke="black" stroke-width="3"/>
<path fill-rule="evenodd" clip-rule="evenodd" d="M56.5 40.3871H29V52H56.5V40.3871ZM37.0773 41.6774H33.2954V45.5484H37.0773V41.6774ZM38.3379 41.6774H42.1197V45.5484H38.3379V41.6774ZM47.1621 41.6774H43.3803V45.5484H47.1621V41.6774ZM48.4228 41.6774H52.2046V45.5484H48.4228V41.6774ZM39.5985 46.8387H35.8166V50.7097H39.5985V46.8387ZM30.7742 46.8387H34.556V50.7097H30.7742V46.8387ZM44.6409 46.8387H40.8591V50.7097H44.6409V46.8387ZM45.9015 46.8387H49.6834V50.7097H45.9015V46.8387ZM54.7258 46.8387H50.944V50.7097H54.7258V46.8387Z" fill="black"/>
</g>
<defs>
<clipPath id="clip0_89_151">
<rect width="27.5" height="40" fill="white" transform="translate(29 12)"/>
</clipPath>
</defs>
</svg>
