<svg width="30" height="30" viewBox="0 0 30 30" fill="none" xmlns="http://www.w3.org/2000/svg">
<mask id="path-1-inside-1_1_1606" fill="white">
<path fill-rule="evenodd" clip-rule="evenodd" d="M18.4615 0H0V25.2H15.501L11.3899 20.3949C10.0057 18.777 10.0057 16.1539 11.3899 14.5361C12.7741 12.9182 15.0183 12.9182 16.4025 14.5361L18.4615 16.9427V0Z"/>
</mask>
<path d="M0 0V-1H-1V0H0ZM18.4615 0H19.4615V-1H18.4615V0ZM0 25.2H-1V26.2H0V25.2ZM15.501 25.2V26.2H17.6727L16.2609 24.5499L15.501 25.2ZM11.3899 20.3949L10.63 21.045L11.3899 20.3949ZM11.3899 14.5361L12.1497 15.1862L11.3899 14.5361ZM16.4025 14.5361L17.1624 13.886L16.4025 14.5361ZM18.4615 16.9427L17.7017 17.5928L19.4615 19.6497V16.9427H18.4615ZM0 1H18.4615V-1H0V1ZM1 25.2V0H-1V25.2H1ZM15.501 24.2H0V26.2H15.501V24.2ZM16.2609 24.5499L12.1497 19.7447L10.63 21.045L14.7412 25.8501L16.2609 24.5499ZM12.1497 19.7447C11.0857 18.5012 11.0857 16.4298 12.1497 15.1862L10.63 13.886C8.92564 15.8781 8.92563 19.0528 10.63 21.045L12.1497 19.7447ZM12.1497 15.1862C13.1348 14.0348 14.6576 14.0348 15.6427 15.1862L17.1624 13.886C15.379 11.8016 12.4134 11.8016 10.63 13.886L12.1497 15.1862ZM15.6427 15.1862L17.7017 17.5928L19.2214 16.2926L17.1624 13.886L15.6427 15.1862ZM17.4615 0V16.9427H19.4615V0H17.4615Z" fill="#F4F4F4" mask="url(#path-1-inside-1_1_1606)"/>
<mask id="path-3-inside-2_1_1606" fill="white">
<path fill-rule="evenodd" clip-rule="evenodd" d="M10.2663 13.3504C8.13879 15.2226 7.9635 18.5704 9.88302 20.6718L12.0758 23.0723L12.0456 23.1037L13.2238 24.3291L17.3078 28.8L17.4293 28.7028L18.5728 29.892L27.5476 20.5582C29.35 18.6836 29.35 15.6445 27.5476 13.7699C25.7451 11.8954 22.8228 11.8954 21.0204 13.7699L18.8844 15.9914L16.9925 13.8167C15.2382 11.8002 12.2624 11.5939 10.2663 13.3504Z"/>
</mask>
<path d="M9.88302 20.6718L10.6213 19.9973V19.9973L9.88302 20.6718ZM10.2663 13.3504L10.927 14.1011L10.2663 13.3504ZM12.0758 23.0723L12.7967 23.7654L13.4462 23.0899L12.8142 22.3979L12.0758 23.0723ZM12.0456 23.1037L11.3248 22.4106L10.6583 23.1037L11.3248 23.7969L12.0456 23.1037ZM13.2238 24.3291L13.9622 23.6547L13.9535 23.6452L13.9447 23.636L13.2238 24.3291ZM17.3078 28.8L16.5695 29.4744L17.2011 30.1659L17.9325 29.5808L17.3078 28.8ZM17.4293 28.7028L18.1501 28.0097L17.5174 27.3516L16.8046 27.9219L17.4293 28.7028ZM18.5728 29.892L17.8519 30.5851L18.5728 31.3347L19.2936 30.5851L18.5728 29.892ZM27.5476 20.5582L26.8267 19.8651L27.5476 20.5582ZM21.0204 13.7699L21.7413 14.463L21.0204 13.7699ZM18.8844 15.9914L18.13 16.6477L18.8475 17.4725L19.6053 16.6845L18.8844 15.9914ZM16.9925 13.8167L17.747 13.1603V13.1603L16.9925 13.8167ZM10.6213 19.9973C9.07643 18.3061 9.22256 15.6009 10.927 14.1011L9.60574 12.5997C7.05501 14.8442 6.85058 18.8348 9.14468 21.3462L10.6213 19.9973ZM12.8142 22.3979L10.6213 19.9973L9.14468 21.3462L11.3375 23.7468L12.8142 22.3979ZM11.355 22.3792L11.3248 22.4106L12.7664 23.7969L12.7967 23.7654L11.355 22.3792ZM11.3248 23.7969L12.503 25.0222L13.9447 23.636L12.7664 22.4106L11.3248 23.7969ZM18.0461 28.1255L13.9622 23.6547L12.4855 25.0035L16.5695 29.4744L18.0461 28.1255ZM16.8046 27.9219L16.6831 28.0191L17.9325 29.5808L18.054 29.4836L16.8046 27.9219ZM16.7084 29.3959L17.8519 30.5851L19.2936 29.1989L18.1501 28.0097L16.7084 29.3959ZM19.2936 30.5851L28.2684 21.2513L26.8267 19.8651L17.8519 29.1989L19.2936 30.5851ZM28.2684 21.2513C30.443 18.9896 30.443 15.3385 28.2684 13.0768L26.8267 14.463C28.2569 15.9505 28.2569 18.3777 26.8267 19.8651L28.2684 21.2513ZM28.2684 13.0768C26.0725 10.7931 22.4955 10.7931 20.2996 13.0768L21.7413 14.463C23.1502 12.9977 25.4178 12.9977 26.8267 14.463L28.2684 13.0768ZM20.2996 13.0768L18.1636 15.2983L19.6053 16.6845L21.7413 14.463L20.2996 13.0768ZM16.238 14.473L18.13 16.6477L19.6389 15.335L17.747 13.1603L16.238 14.473ZM10.927 14.1011C12.5031 12.7142 14.8445 12.8712 16.238 14.473L17.747 13.1603C15.632 10.7293 12.0218 10.4736 9.60574 12.5997L10.927 14.1011Z" fill="#F4F4F4" mask="url(#path-3-inside-2_1_1606)"/>
<path d="M3.46143 5.3999H14.423" stroke="#F4F4F4"/>
<path d="M3.46143 9.6001H14.423" stroke="#F4F4F4"/>
<path d="M3.46143 14.3999H8.07681" stroke="#F4F4F4"/>
<path d="M3.46143 19.2H8.07681" stroke="#F4F4F4"/>
</svg>
