<svg width="30" height="30" viewBox="0 0 30 30" fill="none" xmlns="http://www.w3.org/2000/svg">
<path d="M15.2876 26.5749L3.57506 14.9124C3.20037 14.5411 2.91549 14.089 2.74218 13.5907C2.56887 13.0925 2.51171 12.5612 2.57506 12.0374L3.07118 12.0996L3.07132 12.0985C3.01731 12.5463 3.06626 13.0005 3.21443 13.4265C3.36271 13.8528 3.60645 14.2396 3.92704 14.5573L3.92785 14.5581L15.638 26.2183M15.2876 26.5749L15.6359 26.2163C15.6366 26.2169 15.6373 26.2176 15.638 26.2183M15.2876 26.5749C15.7193 26.9942 16.2982 27.2276 16.9001 27.2249L3.07144 12.0975L3.90848 5.41362C3.90852 5.41336 3.90855 5.4131 3.90858 5.41284C3.95638 5.04202 4.12508 4.69728 4.3886 4.43202C4.65208 4.1668 4.99563 3.99583 5.36607 3.94557C5.36638 3.94553 5.3667 3.94548 5.36701 3.94544L12.0475 3.07134C12.0483 3.07124 12.0491 3.07115 12.0499 3.07105C12.4943 3.01776 12.945 3.06502 13.3688 3.20935C13.7928 3.35377 14.1789 3.59169 14.4985 3.90548C14.4989 3.90584 14.4992 3.9062 14.4996 3.90655L26.221 15.5655L26.5751 15.2124L26.2225 15.5669L26.2217 15.5662C26.3907 15.7359 26.5245 15.9374 26.6152 16.1591C26.7057 16.3803 26.7515 16.6172 26.7501 16.8562C26.7409 17.3411 26.543 17.8034 26.1983 18.1446L26.1954 18.1475L26.1954 18.1475L18.2204 26.1725L18.2198 26.1731C18.047 26.3476 17.8413 26.4862 17.6147 26.5809C17.3881 26.6756 17.1449 26.7246 16.8993 26.7249L16.8979 26.7249C16.4278 26.727 15.9757 26.5452 15.638 26.2183M15.2876 26.5749L15.6404 26.2206L15.638 26.2183M20.3505 14.962L20.704 14.6085C20.4344 14.3389 20.0688 14.1874 19.6876 14.1874H16.8875C17.192 14.0624 17.4703 13.8777 17.7053 13.6427C18.055 13.2931 18.2931 12.8476 18.3895 12.3627C18.486 11.8777 18.4365 11.375 18.2473 10.9182C18.058 10.4614 17.7376 10.071 17.3265 9.79627C16.9154 9.52156 16.432 9.37494 15.9376 9.37494C15.2745 9.37494 14.6386 9.63834 14.1698 10.1072C13.701 10.576 13.4376 11.2119 13.4376 11.8749C13.4376 12.3694 13.5842 12.8527 13.8589 13.2639C14.1336 13.675 14.524 13.9954 14.9808 14.1846C14.9831 14.1856 14.9854 14.1865 14.9876 14.1874H12.1876C11.8063 14.1874 11.4407 14.3389 11.1711 14.6085C10.9015 14.8781 10.7501 15.2437 10.7501 15.6249C10.7501 16.0062 10.9015 16.3718 11.1711 16.6414C11.4407 16.911 11.8063 17.0624 12.1876 17.0624H15.0846C14.7422 17.1867 14.4295 17.3849 14.1698 17.6447C13.8202 17.9943 13.5821 18.4398 13.4856 18.9247C13.3891 19.4097 13.4386 19.9123 13.6279 20.3692C13.8171 20.826 14.1375 21.2164 14.5486 21.4911C14.9597 21.7658 15.443 21.9124 15.9375 21.9124L20.3505 14.962ZM20.3505 14.962L20.704 14.6085C20.9736 14.8781 21.1251 15.2437 21.1251 15.6249C21.1251 16.0062 20.9736 16.3718 20.704 16.6414C20.4344 16.911 20.0688 17.0624 19.6876 17.0624H16.7905M20.3505 14.962L16.7905 17.0624M16.7905 17.0624C16.8253 17.0751 16.8599 17.0885 16.8943 17.1027C17.3511 17.292 17.7415 17.6124 18.0162 18.0235C18.2822 18.4216 18.4282 18.8875 18.4371 19.3656L18.4375 19.3656C18.4437 19.6978 18.3836 20.0279 18.2608 20.3367C18.1379 20.6454 17.9548 20.9266 17.722 21.1637L17.3652 20.8135L17.722 21.1637C17.4892 21.4009 17.2115 21.5892 16.9051 21.7178C16.5987 21.8463 16.2698 21.9125 15.9376 21.9124L16.7905 17.0624ZM6.48422 9.76622L6.47399 9.756L6.46436 9.7452C6.21994 9.47107 6.08971 9.11379 6.1004 8.74668C6.1111 8.37956 6.2619 8.03046 6.52186 7.77103L8.34245 5.95044C8.4392 5.77805 8.57065 5.62716 8.72885 5.5075C8.91226 5.36877 9.12628 5.27606 9.35294 5.23717C9.5796 5.19829 9.81229 5.21435 10.0315 5.28401C10.2506 5.35366 10.4499 5.47489 10.6125 5.6375C10.7751 5.80012 10.8963 5.99938 10.966 6.21854C11.0357 6.43771 11.0517 6.6704 11.0128 6.89706C10.9739 7.12372 10.8812 7.33774 10.7425 7.52115C10.624 7.67784 10.4748 7.80829 10.3045 7.90477L8.52311 9.75886L8.52319 9.75893L8.51589 9.76622C8.24636 10.0354 7.88099 10.1866 7.50006 10.1866C7.11912 10.1866 6.75376 10.0354 6.48422 9.76622Z" stroke="#F4F4F4"/>
<path d="M15.4375 19.375C15.4375 19.2761 15.4668 19.1794 15.5218 19.0972C15.5767 19.015 15.6548 18.9509 15.7462 18.9131C15.8375 18.8752 15.9381 18.8653 16.035 18.8846C16.132 18.9039 16.2211 18.9515 16.2911 19.0214C16.361 19.0914 16.4086 19.1805 16.4279 19.2775C16.4472 19.3744 16.4373 19.475 16.3994 19.5663C16.3616 19.6577 16.2975 19.7358 16.2153 19.7907C16.1331 19.8457 16.0364 19.875 15.9375 19.875C15.8049 19.875 15.6777 19.8223 15.5839 19.7286C15.4902 19.6348 15.4375 19.5076 15.4375 19.375ZM16.4375 11.875C16.4375 11.9739 16.4082 12.0706 16.3532 12.1528C16.2983 12.235 16.2202 12.2991 16.1288 12.3369C16.0375 12.3748 15.9369 12.3847 15.84 12.3654C15.743 12.3461 15.6539 12.2985 15.5839 12.2286C15.514 12.1586 15.4664 12.0695 15.4471 11.9725C15.4278 11.8756 15.4377 11.775 15.4756 11.6837C15.5134 11.5923 15.5775 11.5142 15.6597 11.4593C15.7419 11.4043 15.8386 11.375 15.9375 11.375C16.0701 11.375 16.1973 11.4277 16.2911 11.5214C16.3848 11.6152 16.4375 11.7424 16.4375 11.875Z" fill="#F4F4F4"/>
</svg>
