<svg width="25" height="25" viewBox="0 0 25 25" fill="none" xmlns="http://www.w3.org/2000/svg">
<g clip-path="url(#clip0_12_1873)">
<path d="M12.5 0C10.0277 0 7.61099 0.733112 5.55538 2.10663C3.49976 3.48015 1.89761 5.43238 0.951511 7.71646C0.00541601 10.0005 -0.242126 12.5139 0.24019 14.9386C0.722505 17.3634 1.91301 19.5907 3.66117 21.3388C5.40933 23.087 7.63661 24.2775 10.0614 24.7598C12.4861 25.2421 14.9995 24.9946 17.2835 24.0485C19.5676 23.1024 21.5199 21.5002 22.8934 19.4446C24.2669 17.389 25 14.9723 25 12.5C24.9961 9.186 23.6779 6.00886 21.3345 3.6655C18.9911 1.32215 15.814 0.00392838 12.5 0ZM12.5 23.4375C10.3368 23.4375 8.22212 22.796 6.42346 21.5942C4.62479 20.3924 3.22291 18.6842 2.39507 16.6856C1.56724 14.687 1.35064 12.4879 1.77267 10.3662C2.19469 8.24453 3.23639 6.29566 4.76603 4.76602C6.29566 3.23638 8.24454 2.19469 10.3662 1.77266C12.4879 1.35064 14.687 1.56723 16.6856 2.39507C18.6842 3.2229 20.3924 4.62479 21.5942 6.42345C22.796 8.22211 23.4375 10.3368 23.4375 12.5C23.4344 15.3999 22.2811 18.18 20.2306 20.2306C18.1801 22.2811 15.3999 23.4344 12.5 23.4375Z" fill="black"/>
<path d="M12.8207 5.10541C11.5779 5.10665 10.3863 5.60091 9.50749 6.47972C8.62868 7.35852 8.13442 8.55009 8.13318 9.79291H9.69568C9.69568 8.96411 10.0249 8.16925 10.611 7.5832C11.197 6.99715 11.9919 6.66791 12.8207 6.66791C13.5713 6.66717 14.2971 6.93662 14.8653 7.427C15.4336 7.91737 15.8064 8.59591 15.9155 9.33853C16.0247 10.0812 15.8629 10.8383 15.4597 11.4714C15.0566 12.1045 14.439 12.5714 13.7199 12.7867C13.2349 12.9278 12.8089 13.2225 12.5058 13.6266C12.2028 14.0307 12.0391 14.5222 12.0394 15.0273V17.6054H13.6019V15.0273C13.6034 14.8586 13.6595 14.6949 13.7617 14.5607C13.8639 14.4265 14.0069 14.329 14.1691 14.2828C15.2471 13.9594 16.1727 13.259 16.7769 12.3095C17.3811 11.3601 17.6236 10.2249 17.46 9.11149C17.2964 7.99803 16.7377 6.9806 15.8859 6.24507C15.0341 5.50955 13.9461 5.10502 12.8207 5.10541Z" fill="black"/>
<path d="M13.5601 19.1678H11.9976V20.7303H13.5601V19.1678Z" fill="black"/>
</g>
<defs>
<clipPath id="clip0_12_1873">
<rect width="25" height="25" fill="white"/>
</clipPath>
</defs>
</svg>
