<svg width="38" height="38" viewBox="0 0 38 38" fill="none" xmlns="http://www.w3.org/2000/svg">
<g clip-path="url(#clip0_465_87)">
<rect width="38" height="38" rx="19" fill="white"/>
<g clip-path="url(#clip1_465_87)">
<path fill-rule="evenodd" clip-rule="evenodd" d="M22.8882 15.7273C22.8882 19.3967 19.8258 22.4545 15.9441 22.4545C12.0624 22.4545 9 19.3967 9 15.7273C9 12.0579 12.0624 9 15.9441 9C19.8258 9 22.8882 12.0579 22.8882 15.7273ZM21.4794 22.5829C19.9567 23.7551 18.0341 24.4545 15.9441 24.4545C11.0044 24.4545 7 20.5472 7 15.7273C7 10.9073 11.0044 7 15.9441 7C20.8838 7 24.8882 10.9073 24.8882 15.7273C24.8882 17.7962 24.1504 19.697 22.9175 21.1927L31.537 29.6032L30.1056 31L21.4794 22.5829Z" fill="black"/>
</g>
</g>
<defs>
<clipPath id="clip0_465_87">
<rect width="38" height="38" fill="white"/>
</clipPath>
<clipPath id="clip1_465_87">
<rect width="24" height="24" fill="white" transform="translate(7 7)"/>
</clipPath>
</defs>
</svg>
