<svg width="92" height="25" viewBox="0 0 92 25" fill="none" xmlns="http://www.w3.org/2000/svg">
<path d="M35.7188 15.3203L37.1484 15.1953C37.2161 15.7682 37.3724 16.2396 37.6172 16.6094C37.8672 16.974 38.2526 17.2708 38.7734 17.5C39.2943 17.724 39.8802 17.8359 40.5312 17.8359C41.1094 17.8359 41.6198 17.75 42.0625 17.5781C42.5052 17.4062 42.8333 17.1719 43.0469 16.875C43.2656 16.5729 43.375 16.2448 43.375 15.8906C43.375 15.5312 43.2708 15.2188 43.0625 14.9531C42.8542 14.6823 42.5104 14.4557 42.0312 14.2734C41.724 14.1536 41.0443 13.9688 39.9922 13.7188C38.9401 13.4635 38.2031 13.224 37.7812 13C37.2344 12.7135 36.8255 12.3594 36.5547 11.9375C36.2891 11.5104 36.1562 11.0339 36.1562 10.5078C36.1562 9.92969 36.3203 9.39062 36.6484 8.89062C36.9766 8.38542 37.4557 8.0026 38.0859 7.74219C38.7161 7.48177 39.4167 7.35156 40.1875 7.35156C41.0365 7.35156 41.7839 7.48958 42.4297 7.76562C43.0807 8.03646 43.5807 8.4375 43.9297 8.96875C44.2786 9.5 44.4661 10.1016 44.4922 10.7734L43.0391 10.8828C42.9609 10.1589 42.6953 9.61198 42.2422 9.24219C41.7943 8.8724 41.1302 8.6875 40.25 8.6875C39.3333 8.6875 38.6641 8.85677 38.2422 9.19531C37.8255 9.52865 37.6172 9.93229 37.6172 10.4062C37.6172 10.8177 37.7656 11.1562 38.0625 11.4219C38.3542 11.6875 39.1146 11.9609 40.3438 12.2422C41.5781 12.5182 42.4245 12.7604 42.8828 12.9688C43.5495 13.276 44.0417 13.6667 44.3594 14.1406C44.6771 14.6094 44.8359 15.151 44.8359 15.7656C44.8359 16.375 44.6615 16.9505 44.3125 17.4922C43.9635 18.0286 43.4609 18.4479 42.8047 18.75C42.1536 19.0469 41.4193 19.1953 40.6016 19.1953C39.5651 19.1953 38.6953 19.0443 37.9922 18.7422C37.2943 18.4401 36.7448 17.987 36.3438 17.3828C35.9479 16.7734 35.7396 16.0859 35.7188 15.3203ZM52.1641 19V17.7812C51.5182 18.7188 50.6406 19.1875 49.5312 19.1875C49.0417 19.1875 48.5833 19.0938 48.1562 18.9062C47.7344 18.7188 47.4193 18.4844 47.2109 18.2031C47.0078 17.9167 46.8646 17.5677 46.7812 17.1562C46.724 16.8802 46.6953 16.4427 46.6953 15.8438V10.7031H48.1016V15.3047C48.1016 16.0391 48.1302 16.5339 48.1875 16.7891C48.276 17.1589 48.4635 17.4505 48.75 17.6641C49.0365 17.8724 49.3906 17.9766 49.8125 17.9766C50.2344 17.9766 50.6302 17.8698 51 17.6562C51.3698 17.4375 51.6302 17.1432 51.7812 16.7734C51.9375 16.3984 52.0156 15.8568 52.0156 15.1484V10.7031H53.4219V19H52.1641ZM55.6328 22.1797V10.7031H56.9141V11.7812C57.2161 11.3594 57.5573 11.0443 57.9375 10.8359C58.3177 10.6224 58.7786 10.5156 59.3203 10.5156C60.0286 10.5156 60.6536 10.6979 61.1953 11.0625C61.737 11.4271 62.1458 11.9427 62.4219 12.6094C62.6979 13.2708 62.8359 13.9974 62.8359 14.7891C62.8359 15.638 62.6823 16.4036 62.375 17.0859C62.0729 17.763 61.6302 18.2839 61.0469 18.6484C60.4688 19.0078 59.8594 19.1875 59.2188 19.1875C58.75 19.1875 58.3281 19.0885 57.9531 18.8906C57.5833 18.6927 57.2786 18.4427 57.0391 18.1406V22.1797H55.6328ZM56.9062 14.8984C56.9062 15.9661 57.1224 16.7552 57.5547 17.2656C57.987 17.776 58.5104 18.0312 59.125 18.0312C59.75 18.0312 60.2839 17.7682 60.7266 17.2422C61.1745 16.7109 61.3984 15.8906 61.3984 14.7812C61.3984 13.724 61.1797 12.9323 60.7422 12.4062C60.3099 11.8802 59.7917 11.6172 59.1875 11.6172C58.5885 11.6172 58.0573 11.8984 57.5938 12.4609C57.1354 13.0182 56.9062 13.8307 56.9062 14.8984ZM64.5391 22.1797V10.7031H65.8203V11.7812C66.1224 11.3594 66.4635 11.0443 66.8438 10.8359C67.224 10.6224 67.6849 10.5156 68.2266 10.5156C68.9349 10.5156 69.5599 10.6979 70.1016 11.0625C70.6432 11.4271 71.0521 11.9427 71.3281 12.6094C71.6042 13.2708 71.7422 13.9974 71.7422 14.7891C71.7422 15.638 71.5885 16.4036 71.2812 17.0859C70.9792 17.763 70.5365 18.2839 69.9531 18.6484C69.375 19.0078 68.7656 19.1875 68.125 19.1875C67.6562 19.1875 67.2344 19.0885 66.8594 18.8906C66.4896 18.6927 66.1849 18.4427 65.9453 18.1406V22.1797H64.5391ZM65.8125 14.8984C65.8125 15.9661 66.0286 16.7552 66.4609 17.2656C66.8932 17.776 67.4167 18.0312 68.0312 18.0312C68.6562 18.0312 69.1901 17.7682 69.6328 17.2422C70.0807 16.7109 70.3047 15.8906 70.3047 14.7812C70.3047 13.724 70.0859 12.9323 69.6484 12.4062C69.2161 11.8802 68.6979 11.6172 68.0938 11.6172C67.4948 11.6172 66.9635 11.8984 66.5 12.4609C66.0417 13.0182 65.8125 13.8307 65.8125 14.8984ZM72.9219 14.8516C72.9219 13.3151 73.349 12.1771 74.2031 11.4375C74.9167 10.8229 75.7865 10.5156 76.8125 10.5156C77.9531 10.5156 78.8854 10.8906 79.6094 11.6406C80.3333 12.3854 80.6953 13.4167 80.6953 14.7344C80.6953 15.8021 80.5339 16.6432 80.2109 17.2578C79.8932 17.8672 79.4271 18.3411 78.8125 18.6797C78.2031 19.0182 77.5365 19.1875 76.8125 19.1875C75.651 19.1875 74.7109 18.8151 73.9922 18.0703C73.2786 17.3255 72.9219 16.2526 72.9219 14.8516ZM74.3672 14.8516C74.3672 15.9141 74.599 16.7109 75.0625 17.2422C75.526 17.7682 76.1094 18.0312 76.8125 18.0312C77.5104 18.0312 78.0911 17.7656 78.5547 17.2344C79.0182 16.7031 79.25 15.8932 79.25 14.8047C79.25 13.7786 79.0156 13.0026 78.5469 12.4766C78.0833 11.9453 77.5052 11.6797 76.8125 11.6797C76.1094 11.6797 75.526 11.9427 75.0625 12.4688C74.599 12.9948 74.3672 13.7891 74.3672 14.8516ZM82.3359 19V10.7031H83.6016V11.9609C83.9245 11.3724 84.2214 10.9844 84.4922 10.7969C84.7682 10.6094 85.0703 10.5156 85.3984 10.5156C85.8724 10.5156 86.3542 10.6667 86.8438 10.9688L86.3594 12.2734C86.0156 12.0703 85.6719 11.9688 85.3281 11.9688C85.0208 11.9688 84.7448 12.0625 84.5 12.25C84.2552 12.4323 84.0807 12.6875 83.9766 13.0156C83.8203 13.5156 83.7422 14.0625 83.7422 14.6562V19H82.3359ZM90.75 17.7422L90.9531 18.9844C90.5573 19.0677 90.2031 19.1094 89.8906 19.1094C89.3802 19.1094 88.9844 19.0286 88.7031 18.8672C88.4219 18.7057 88.224 18.4948 88.1094 18.2344C87.9948 17.9688 87.9375 17.4141 87.9375 16.5703V11.7969H86.9062V10.7031H87.9375V8.64844L89.3359 7.80469V10.7031H90.75V11.7969H89.3359V16.6484C89.3359 17.0495 89.3594 17.3073 89.4062 17.4219C89.4583 17.5365 89.5391 17.6276 89.6484 17.6953C89.763 17.763 89.9245 17.7969 90.1328 17.7969C90.2891 17.7969 90.4948 17.7786 90.75 17.7422Z" fill="#060606"/>
<g clip-path="url(#clip0_12_1904)">
<path d="M12.5 0C10.0277 0 7.61099 0.733112 5.55538 2.10663C3.49976 3.48015 1.89761 5.43238 0.951511 7.71646C0.00541601 10.0005 -0.242126 12.5139 0.24019 14.9386C0.722505 17.3634 1.91301 19.5907 3.66117 21.3388C5.40933 23.087 7.63661 24.2775 10.0614 24.7598C12.4861 25.2421 14.9995 24.9946 17.2835 24.0485C19.5676 23.1024 21.5199 21.5002 22.8934 19.4446C24.2669 17.389 25 14.9723 25 12.5C24.9961 9.186 23.6779 6.00886 21.3345 3.6655C18.9911 1.32215 15.814 0.00392838 12.5 0ZM12.5 23.4375C10.3368 23.4375 8.22212 22.796 6.42346 21.5942C4.62479 20.3924 3.22291 18.6842 2.39507 16.6856C1.56724 14.687 1.35064 12.4879 1.77267 10.3662C2.19469 8.24453 3.23639 6.29566 4.76603 4.76602C6.29566 3.23638 8.24454 2.19469 10.3662 1.77266C12.4879 1.35064 14.687 1.56723 16.6856 2.39507C18.6842 3.2229 20.3924 4.62479 21.5942 6.42345C22.796 8.22211 23.4375 10.3368 23.4375 12.5C23.4344 15.3999 22.2811 18.18 20.2306 20.2306C18.1801 22.2811 15.3999 23.4344 12.5 23.4375Z" fill="black"/>
<path d="M12.5 4.6875C11.2572 4.68874 10.0656 5.183 9.18681 6.06181C8.308 6.94062 7.81374 8.13218 7.8125 9.375H9.375C9.375 8.5462 9.70424 7.75134 10.2903 7.16529C10.8763 6.57924 11.6712 6.25 12.5 6.25C13.2506 6.24926 13.9764 6.51871 14.5447 7.00909C15.1129 7.49947 15.4857 8.178 15.5949 8.92063C15.704 9.66325 15.5422 10.4203 15.139 11.0535C14.7359 11.6866 14.1183 12.1535 13.3992 12.3687C12.9142 12.5099 12.4882 12.8046 12.1852 13.2087C11.8821 13.6128 11.7184 14.1043 11.7188 14.6094V17.1875H13.2813V14.6094C13.2827 14.4407 13.3388 14.277 13.441 14.1428C13.5432 14.0086 13.6862 13.9111 13.8484 13.8648C14.9264 13.5415 15.852 12.8411 16.4562 11.8916C17.0605 10.9422 17.3029 9.80703 17.1393 8.69358C16.9757 7.58012 16.417 6.56269 15.5652 5.82716C14.7134 5.09164 13.6254 4.68711 12.5 4.6875Z" fill="black"/>
<path d="M13.2812 18.75H11.7188V20.3125H13.2812V18.75Z" fill="black"/>
</g>
<defs>
<clipPath id="clip0_12_1904">
<rect width="25" height="25" fill="white"/>
</clipPath>
</defs>
</svg>
