<svg width="20" height="18" viewBox="0 0 20 18" fill="none" xmlns="http://www.w3.org/2000/svg">
<mask id="path-1-inside-1_34_1478" fill="white">
<path fill-rule="evenodd" clip-rule="evenodd" d="M1.68706 1.2108C-0.403957 3.111 -0.576234 6.50895 1.31031 8.64178L3.46542 11.0782L3.43576 11.1101L4.59243 12.3524L8.60753 16.8916L8.72697 16.793L9.85077 17.9999L18.6714 8.52639C20.4429 6.62381 20.4429 3.53912 18.6714 1.63654C16.9 -0.266035 14.0279 -0.266035 12.2564 1.63654L10.1571 3.89126L8.29766 1.68404C6.57353 -0.362595 3.64884 -0.571967 1.68706 1.2108Z"/>
</mask>
<path fill-rule="evenodd" clip-rule="evenodd" d="M1.68706 1.2108C-0.403957 3.111 -0.576234 6.50895 1.31031 8.64178L3.46542 11.0782L3.43576 11.1101L4.59243 12.3524L8.60753 16.8916L8.72697 16.793L9.85077 17.9999L18.6714 8.52639C20.4429 6.62381 20.4429 3.53912 18.6714 1.63654C16.9 -0.266035 14.0279 -0.266035 12.2564 1.63654L10.1571 3.89126L8.29766 1.68404C6.57353 -0.362595 3.64884 -0.571967 1.68706 1.2108Z" fill="#080808"/>
<path d="M1.31031 8.64178L0.186762 9.63558H0.186762L1.31031 8.64178ZM1.68706 1.2108L2.69586 2.3209L1.68706 1.2108ZM3.46542 11.0782L4.56324 12.1004L5.49087 11.1041L4.58896 10.0844L3.46542 11.0782ZM3.43576 11.1101L2.33794 10.0879L1.38624 11.1101L2.33795 12.1322L3.43576 11.1101ZM4.59243 12.3524L5.71597 11.3586L5.70329 11.3442L5.69024 11.3302L4.59243 12.3524ZM8.60753 16.8916L7.48399 17.8854L8.44484 18.9717L9.5629 18.048L8.60753 16.8916ZM8.72697 16.793L9.82479 15.7708L8.86145 14.7362L7.7716 15.6366L8.72697 16.793ZM9.85077 17.9999L8.75296 19.0221L9.85077 20.2012L10.9486 19.0221L9.85077 17.9999ZM18.6714 8.52639L19.7692 9.54855L18.6714 8.52639ZM18.6714 1.63654L19.7692 0.614389V0.614388L18.6714 1.63654ZM12.2564 1.63654L13.3542 2.6587L12.2564 1.63654ZM10.1571 3.89126L9.00989 4.85768L10.1009 6.15279L11.2549 4.91341L10.1571 3.89126ZM8.29766 1.68404L7.15047 2.65045L8.29766 1.68404ZM2.43385 7.64797C1.08383 6.12171 1.22007 3.66202 2.69586 2.3209L0.678258 0.100698C-2.02798 2.55998 -2.2363 6.8962 0.186762 9.63558L2.43385 7.64797ZM4.58896 10.0844L2.43385 7.64797L0.186762 9.63558L2.34188 12.072L4.58896 10.0844ZM2.3676 10.0561L2.33794 10.0879L4.53358 12.1322L4.56324 12.1004L2.3676 10.0561ZM2.33795 12.1322L3.49461 13.3745L5.69024 11.3302L4.53358 10.0879L2.33795 12.1322ZM9.73107 15.8978L5.71597 11.3586L3.46888 13.3462L7.48399 17.8854L9.73107 15.8978ZM7.7716 15.6366L7.65215 15.7352L9.5629 18.048L9.68235 17.9494L7.7716 15.6366ZM7.62916 17.8151L8.75296 19.0221L10.9486 16.9778L9.82479 15.7708L7.62916 17.8151ZM10.9486 19.0221L19.7692 9.54855L17.5736 7.50424L8.75296 16.9778L10.9486 19.0221ZM19.7692 9.54855C22.0769 7.07003 22.0769 3.09291 19.7692 0.614389L17.5736 2.6587C18.8088 3.98534 18.8088 6.1776 17.5736 7.50424L19.7692 9.54855ZM19.7692 0.614388C17.4046 -1.92532 13.5233 -1.92532 11.1586 0.614389L13.3542 2.6587C14.5325 1.39325 16.3954 1.39325 17.5736 2.6587L19.7692 0.614388ZM11.1586 0.614389L9.05926 2.8691L11.2549 4.91341L13.3542 2.6587L11.1586 0.614389ZM7.15047 2.65045L9.00989 4.85768L11.3043 2.92484L9.44485 0.717619L7.15047 2.65045ZM2.69586 2.3209C4.01774 1.11965 5.96515 1.24341 7.15047 2.65045L9.44485 0.717619C7.18191 -1.9686 3.27995 -2.26358 0.678258 0.100698L2.69586 2.3209Z" fill="#080808" mask="url(#path-1-inside-1_34_1478)"/>
</svg>
