<svg width="30" height="30" viewBox="0 0 30 30" fill="none" xmlns="http://www.w3.org/2000/svg">
<path d="M15.2874 26.5749L3.57494 14.9124C3.20025 14.5411 2.91537 14.089 2.74206 13.5907C2.56875 13.0925 2.51159 12.5612 2.57493 12.0374L3.07106 12.0996L3.0712 12.0985C3.01719 12.5463 3.06614 13.0005 3.21431 13.4265C3.36259 13.8528 3.60633 14.2396 3.92691 14.5573L3.92773 14.5581L15.6379 26.2183M15.2874 26.5749L15.6358 26.2163C15.6365 26.2169 15.6372 26.2176 15.6379 26.2183M15.2874 26.5749C15.7192 26.9942 16.2981 27.2276 16.8999 27.2249L3.07132 12.0975L3.90836 5.41362C3.9084 5.41336 3.90843 5.4131 3.90846 5.41284C3.95625 5.04202 4.12496 4.69728 4.38848 4.43202C4.65196 4.1668 4.99551 3.99583 5.36595 3.94557C5.36626 3.94553 5.36657 3.94548 5.36689 3.94544L12.0474 3.07134C12.0482 3.07124 12.0489 3.07115 12.0497 3.07105C12.4942 3.01776 12.9449 3.06502 13.3686 3.20935C13.7927 3.35377 14.1788 3.59169 14.4984 3.90548C14.4987 3.90584 14.4991 3.9062 14.4995 3.90655L26.2209 15.5655L26.5749 15.2124L26.2223 15.5669L26.2215 15.5662C26.3906 15.7359 26.5244 15.9374 26.6151 16.1591C26.7056 16.3803 26.7514 16.6172 26.75 16.8562C26.7408 17.3411 26.5429 17.8034 26.1982 18.1446L26.1953 18.1475L26.1953 18.1475L18.2203 26.1725L18.2197 26.1731C18.0468 26.3476 17.8412 26.4862 17.6146 26.5809C17.3879 26.6756 17.1448 26.7246 16.8992 26.7249L16.8977 26.7249C16.4277 26.727 15.9756 26.5452 15.6379 26.2183M15.2874 26.5749L15.6402 26.2206L15.6379 26.2183M20.3503 14.962L20.7039 14.6085C20.4343 14.3389 20.0687 14.1874 19.6874 14.1874H16.8874C17.1919 14.0624 17.4702 13.8777 17.7052 13.6427C18.0548 13.2931 18.2929 12.8476 18.3894 12.3627C18.4859 11.8777 18.4364 11.375 18.2471 10.9182C18.0579 10.4614 17.7375 10.071 17.3264 9.79627C16.9152 9.52156 16.4319 9.37494 15.9374 9.37494C15.2744 9.37494 14.6385 9.63834 14.1697 10.1072C13.7008 10.576 13.4374 11.2119 13.4374 11.8749C13.4374 12.3694 13.5841 12.8527 13.8588 13.2639C14.1335 13.675 14.5239 13.9954 14.9807 14.1846C14.983 14.1856 14.9853 14.1865 14.9875 14.1874H12.1874C11.8062 14.1874 11.4406 14.3389 11.171 14.6085C10.9014 14.8781 10.7499 15.2437 10.7499 15.6249C10.7499 16.0062 10.9014 16.3718 11.171 16.6414C11.4406 16.911 11.8062 17.0624 12.1874 17.0624H15.0845C14.7421 17.1867 14.4294 17.3849 14.1697 17.6447C13.82 17.9943 13.5819 18.4398 13.4855 18.9247C13.389 19.4097 13.4385 19.9123 13.6277 20.3692C13.817 20.826 14.1374 21.2164 14.5485 21.4911C14.9596 21.7658 15.4429 21.9124 15.9373 21.9124L20.3503 14.962ZM20.3503 14.962L20.7039 14.6085C20.9735 14.8781 21.1249 15.2437 21.1249 15.6249C21.1249 16.0062 20.9735 16.3718 20.7039 16.6414C20.4343 16.911 20.0687 17.0624 19.6874 17.0624H16.7904M20.3503 14.962L16.7904 17.0624M16.7904 17.0624C16.8252 17.0751 16.8598 17.0885 16.8941 17.1027C17.351 17.292 17.7414 17.6124 18.0161 18.0235C18.2821 18.4216 18.428 18.8875 18.437 19.3656L18.4373 19.3656C18.4436 19.6978 18.3835 20.0279 18.2607 20.3367C18.1378 20.6454 17.9547 20.9266 17.7219 21.1637L17.3651 20.8135L17.7219 21.1637C17.4891 21.4009 17.2114 21.5892 16.905 21.7178C16.5986 21.8463 16.2697 21.9125 15.9374 21.9124L16.7904 17.0624ZM6.4841 9.76622L6.47387 9.756L6.46424 9.7452C6.21982 9.47107 6.08959 9.11379 6.10028 8.74668C6.11098 8.37956 6.26178 8.03046 6.52174 7.77103L8.34233 5.95044C8.43908 5.77805 8.57053 5.62716 8.72873 5.5075C8.91214 5.36877 9.12616 5.27606 9.35282 5.23717C9.57948 5.19829 9.81216 5.21435 10.0313 5.28401C10.2505 5.35366 10.4498 5.47489 10.6124 5.6375C10.775 5.80012 10.8962 5.99938 10.9659 6.21854C11.0355 6.43771 11.0516 6.6704 11.0127 6.89706C10.9738 7.12372 10.8811 7.33774 10.7424 7.52115C10.6239 7.67784 10.4747 7.80829 10.3044 7.90477L8.52299 9.75886L8.52306 9.75893L8.51577 9.76622C8.24624 10.0354 7.88087 10.1866 7.49994 10.1866C7.119 10.1866 6.75363 10.0354 6.4841 9.76622Z" stroke="#FF001D"/>
<path d="M15.4375 19.375C15.4375 19.2761 15.4668 19.1794 15.5218 19.0972C15.5767 19.015 15.6548 18.9509 15.7462 18.9131C15.8375 18.8752 15.9381 18.8653 16.035 18.8846C16.132 18.9039 16.2211 18.9515 16.2911 19.0214C16.361 19.0914 16.4086 19.1805 16.4279 19.2775C16.4472 19.3744 16.4373 19.475 16.3994 19.5663C16.3616 19.6577 16.2975 19.7358 16.2153 19.7907C16.1331 19.8457 16.0364 19.875 15.9375 19.875C15.8049 19.875 15.6777 19.8223 15.5839 19.7286C15.4902 19.6348 15.4375 19.5076 15.4375 19.375ZM16.4375 11.875C16.4375 11.9739 16.4082 12.0706 16.3532 12.1528C16.2983 12.235 16.2202 12.2991 16.1288 12.3369C16.0375 12.3748 15.9369 12.3847 15.84 12.3654C15.743 12.3461 15.6539 12.2985 15.5839 12.2286C15.514 12.1586 15.4664 12.0695 15.4471 11.9725C15.4278 11.8756 15.4377 11.775 15.4756 11.6837C15.5134 11.5923 15.5775 11.5142 15.6597 11.4593C15.7419 11.4043 15.8386 11.375 15.9375 11.375C16.0701 11.375 16.1973 11.4277 16.2911 11.5214C16.3848 11.6152 16.4375 11.7424 16.4375 11.875Z" fill="#FF001D"/>
</svg>
